<svg xmlns="http://www.w3.org/2000/svg" viewBox="0 0 30.78 44.8">
  <g id="Capa_2" data-name="Capa 2">
    <g id="Capa_1-2" data-name="Capa 1">
      <path d="M0,0H14.53Q22,0,26,3.1a10.4,10.4,0,0,1,4,8.74,11.51,11.51,0,0,1-1.92,6.69A9.71,9.71,0,0,1,23,22.34a10.45,10.45,0,0,1,5.82,3.58,10.16,10.16,0,0,1,2,6.4,11.15,11.15,0,0,1-4.09,9.15q-4.1,3.33-11.2,3.33H0ZM13.06,18.05a5.22,5.22,0,0,0,3.52-1.12,3.78,3.78,0,0,0,1.28-3,3.27,3.27,0,0,0-1.25-2.75,5.72,5.72,0,0,0-3.55-1h-.84v7.81Zm0,16.45a6.79,6.79,0,0,0,4.09-1.09,3.49,3.49,0,0,0,1.47-2.95,3.15,3.15,0,0,0-1.47-2.81,7.43,7.43,0,0,0-4.09-1h-.84V34.5Z"/>
    </g>
  </g>
</svg>
