<svg xmlns="http://www.w3.org/2000/svg" viewBox="0 0 163.72 378.49">
    <g id="Capa_1-2" data-name="Capa 1">
      <path d="M0,0H109.39Q132.45,0,144,5.11t15.62,16.16q4.09,11,4.1,32L163,128.67q0,16.16-6.69,27.19t-24.56,25.58q18.59,14.53,24.93,25.3T163,234.2l.75,105.52q-1.5,21.54-14.89,30.15t-46.13,8.62H0ZM81.86,159.9a21.78,21.78,0,0,0,16.37-7q6.7-7,6.7-17.76V52.76a24.92,24.92,0,0,0-6.7-17.5Q91.54,28,83.35,28H63.25V159.9ZM98.6,343.76a25.76,25.76,0,0,0,6.33-17.5V225.59q0-11.31-6.33-18.31a19.86,19.86,0,0,0-15.25-7H63.25V351H82.6A20.3,20.3,0,0,0,98.6,343.76Z" fill="#121511"/>
    </g>
</svg>
