<svg xmlns="http://www.w3.org/2000/svg" xmlns:xlink="http://www.w3.org/1999/xlink" viewBox="0 0 163.72 378.49">
  <defs>
    <linearGradient id="Degradado_sin_nombre_46" data-name="Degradado sin nombre 46" x1="81.86" y1="378.49" x2="81.86" gradientUnits="userSpaceOnUse">
      <stop offset="0" stop-color="#515151"/>
      <stop offset="0" stop-color="#898989"/>
      <stop offset="1" stop-color="#fff"/>
    </linearGradient>
  </defs>
  <g id="Capa_2" data-name="Capa 2">
    <g id="Capa_1-2" data-name="Capa 1">
      <path d="M0,0H107.44q27.77,0,39.47,9.43T160.06,41V193.56q0,22.63-26.31,50.14,11.69,7,16.08,12.67a28.48,28.48,0,0,1,5.48,14q1.09,8.36,1.1,27.76l7.31,80.34H103.05l-7.3-94.36q-1.48-14.55-8.77-19.4t-24.86-4.86V378.49H0ZM96.84,217.82A27.13,27.13,0,0,0,103.05,200V55.53q0-10.77-6.21-17.79a19.33,19.33,0,0,0-15-7H62.12V225.37H81.86Q90.64,225.37,96.84,217.82Z" fill="url(#Degradado_sin_nombre_46)"/>
    </g>
  </g>
</svg>
