<svg xmlns="http://www.w3.org/2000/svg" viewBox="0 0 163.72 378.49">
    <g id="Capa_1-2" data-name="Capa 1">
      <path d="M0,0H107.44q27.77,0,39.47,9.44T160.06,41V193.56q0,22.63-26.31,50.14,11.69,7,16.08,12.67a28.48,28.48,0,0,1,5.48,14q1.09,8.36,1.1,27.76l7.31,80.34H103.05l-7.3-94.35Q94.27,269.58,87,264.73t-24.86-4.86V378.49H0ZM96.84,217.82A27.13,27.13,0,0,0,103.05,200V55.53q0-10.77-6.21-17.79a19.33,19.33,0,0,0-15-7H62.12V225.37H81.86Q90.64,225.37,96.84,217.82Z" fill="#121511"/>
    </g>
</svg>
